<svg version="1.2" baseProfile="tiny" viewBox="0 0 42.501 42.501" xmlns:xlink="http://www.w3.org/1999/xlink" xmlns="http://www.w3.org/2000/svg">
<path style="fill:#ffffff;" d="M21.2509,0.0C9.533,0.0,0.0,9.533,0.0,21.2501C0.0,32.9672,9.533,42.5001,21.2509,42.5001C32.9689,42.5001,42.501,32.9672,42.501,21.2501C42.501,9.533,32.9689,0.0,21.2509,0.0M21.2509,40.5009C10.6359,40.5009,2.0001,31.8651,2.0001,21.2501C2.0001,10.635,10.6359,2.0001,21.2509,2.0001C31.8651,2.0001,40.5009,10.6359,40.5009,21.2501C40.5009,31.8638,31.8651,40.5009,21.2509,40.5009M24.0679,13.4201L28.811,13.4201L28.811,29.0809L25.8729,29.0809L25.8729,16.753L22.7648,29.0809L19.72,29.0809L16.6221,16.753L16.6221,29.0809L13.684,29.0809L13.684,13.4201L18.4161,13.4201L21.2582,24.1032L24.0679,13.4201Z"/>
</svg>